<svg xmlns="http://www.w3.org/2000/svg" xmlns:xlink="http://www.w3.org/1999/xlink" width="512" height="512" viewBox="0 0 512 512" fill="none"><defs><filter id="noise" opacity="30"><feTurbulence type="fractalNoise" baseFrequency="19.5" numOctaves="10" result="turbulence"></feTurbulence><feComposite operator="in" in="turbulence" in2="SourceAlpha" result="composite"></feComposite><feColorMatrix in="composite" type="luminanceToAlpha"></feColorMatrix><feBlend in="SourceGraphic" in2="composite" mode="color-burn"></feBlend></filter><linearGradient id="linearGradient" gradientUnits="userSpaceOnUse" gradientTransform="rotate(45)" style="transform-origin: center center 0px;"><stop stop-color="#76bc77"></stop><stop offset="1" stop-color="#14b85b"></stop></linearGradient><radialGradient id="radialGradient" cx="50%" cy="50%" r="100%" fx="50%" fy="0%" gradientUnits="objectBoundingBox"><stop stop-color="#76bc77"></stop><stop offset="1" stop-color="#14b85b"></stop></radialGradient><radialGradient id="radialGlare" cx="0" cy="0" r="1" gradientUnits="userSpaceOnUse" gradientTransform="translate(256) rotate(90) scale(512)"><stop stop-color="white"></stop><stop offset="1" stop-color="white" stop-opacity="0"></stop></radialGradient><clipPath id="image-clip"><use xlink:href="#image"></use></clipPath></defs><rect id="image" width="512" height="512" rx="32" ry="32" fill="url(#radialGradient)" stroke="#FFFFFF" stroke-width="0" stroke-opacity="100%" paint-order="stroke"></rect><g transform="rotate(0 0 0)" style="transform-origin: 256px 256px;"><svg xmlns="http://www.w3.org/2000/svg" width="400" height="400" viewBox="0 0 24 24" fill="none" stroke="#ffffff" stroke-width="1" stroke-linecap="round" stroke-linejoin="round" class="lucide lucide-cake" x="56" y="56"><path d="M20 21v-8a2 2 0 0 0-2-2H6a2 2 0 0 0-2 2v8"></path><path d="M4 16s.5-1 2-1 2.5 2 4 2 2.5-2 4-2 2.5 2 4 2 2-1 2-1"></path><path d="M2 21h20"></path><path d="M7 8v3"></path><path d="M12 8v3"></path><path d="M17 8v3"></path><path d="M7 4h.01"></path><path d="M12 4h.01"></path><path d="M17 4h.01"></path></svg></g><image href="data:image/svg+xml,%3csvg%20viewBox='0%200%20400%20400'%20xmlns='http://www.w3.org/2000/svg'%3e%3cfilter%20id='noiseFilter'%3e%3cfeTurbulence%20type='fractalNoise'%20baseFrequency='1.73'%20numOctaves='3'%20stitchTiles='stitch'/%3e%3c/filter%3e%3crect%20width='100%25'%20height='100%25'%20filter='url(%23noiseFilter)'/%3e%3c/svg%3e" width="512" height="512" rx="32" ry="32" opacity="30%" clip-path="url(#image-clip)"></image></svg>